<?xml version="1.0" standalone="no"?>
<!DOCTYPE svg PUBLIC "-//W3C//DTD SVG 20010904//EN"
 "http://www.w3.org/TR/2001/REC-SVG-20010904/DTD/svg10.dtd">
<svg version="1.0" xmlns="http://www.w3.org/2000/svg"
 width="400.000000pt" height="400.000000pt" viewBox="0 0 400.000000 400.000000"
 preserveAspectRatio="xMidYMid meet">
<metadata>
Created by potrace 1.11, written by Peter Selinger 2001-2013
</metadata>
<g transform="translate(0.000000,400.000000) scale(0.100000,-0.100000)"
fill="#000000" stroke="none">
<path d="M0 2000 l0 -2000 2000 0 2000 0 0 2000 0 2000 -2000 0 -2000 0 0
-2000z m1325 812 c256 -70 440 -246 525 -502 85 -259 59 -631 -60 -860 -80
-152 -179 -249 -325 -320 -153 -73 -155 -73 -677 -78 l-468 -3 0 896 0 896
463 -3 c438 -4 466 -5 542 -26z m1235 -317 l0 -345 365 0 365 0 0 345 0 345
195 0 195 0 0 -895 0 -895 -195 0 -195 0 0 385 0 385 -365 0 -365 0 0 -385 0
-385 -195 0 -195 0 0 895 0 895 195 0 195 0 0 -345z"/>
<path d="M710 1945 l0 -565 201 0 c241 0 310 12 398 71 67 44 100 84 140 167
46 92 56 152 55 317 -1 220 -36 336 -135 440 -58 62 -153 109 -249 124 -36 6
-143 11 -237 11 l-173 0 0 -565z"/>
</g>
</svg>
